<?xml version="1.0" encoding="UTF-8" standalone="no"?>
<!DOCTYPE svg PUBLIC "-//W3C//DTD SVG 1.1//EN"
 "http://www.w3.org/Graphics/SVG/1.1/DTD/svg11.dtd">
<!-- Generated by graphviz version 14.1.1 (20251213.1925)
 -->
<!-- Title: Problem_Management_workflow Pages: 1 -->
<svg width="2034pt" height="1727pt"
 viewBox="0.00 0.00 2034.00 1727.00" xmlns="http://www.w3.org/2000/svg" xmlns:xlink="http://www.w3.org/1999/xlink">
<g id="graph0" class="graph" transform="scale(1 1) rotate(0) translate(4 1722.5)">
<title>Problem_Management_workflow</title>
<polygon fill="white" stroke="none" points="-4,4 -4,-1722.5 2030,-1722.5 2030,4 -4,4"/>
<!-- Activity_HeEenpk1a2 -->
<g id="node1" class="node">
<title>Activity_HeEenpk1a2</title>
<ellipse fill="lightgreen" stroke="black" cx="1868.25" cy="-1700.5" rx="28.32" ry="18"/>
<text xml:space="preserve" text-anchor="middle" x="1868.25" y="-1695.45" font-family="Times New Roman,serif" font-size="14.00">Start</text>
</g>
<!-- Activity_7ucWyAlOW -->
<g id="node2" class="node">
<title>Activity_7ucWyAlOW</title>
<polygon fill="none" stroke="black" points="1718.5,-1594 1718.5,-1620.5 2018,-1620.5 2018,-1594 1718.5,-1594"/>
<text xml:space="preserve" text-anchor="start" x="1811.25" y="-1603.2" font-family="Times New Roman,serif" font-weight="bold" font-size="14.00">Goto&#45;Known Error</text>
<polygon fill="none" stroke="black" points="1718.5,-1567.5 1718.5,-1594 2018,-1594 2018,-1567.5 1718.5,-1567.5"/>
<text xml:space="preserve" text-anchor="start" x="1723.5" y="-1575.7" font-family="Times New Roman,serif" font-size="14.00">Expression: Choosing_Assignment_group_L2=true()</text>
</g>
<!-- Activity_HeEenpk1a2&#45;&gt;Activity_7ucWyAlOW -->
<g id="edge1" class="edge">
<title>Activity_HeEenpk1a2&#45;&gt;Activity_7ucWyAlOW</title>
<path fill="none" stroke="black" d="M1868.25,-1682.43C1868.25,-1682.43 1868.25,-1635.79 1868.25,-1635.79"/>
<polygon fill="black" stroke="black" points="1871.75,-1635.79 1868.25,-1625.79 1864.75,-1635.79 1871.75,-1635.79"/>
</g>
<!-- Activity_0MrJOx_m9 -->
<g id="node3" class="node">
<title>Activity_0MrJOx_m9</title>
<polygon fill="none" stroke="black" points="1517.88,-1475 1517.88,-1501.5 1936.62,-1501.5 1936.62,-1475 1517.88,-1475"/>
<text xml:space="preserve" text-anchor="start" x="1672.88" y="-1484.2" font-family="Times New Roman,serif" font-weight="bold" font-size="14.00">Dummy Step Take</text>
<polygon fill="none" stroke="black" points="1517.88,-1448.5 1517.88,-1475 1936.62,-1475 1936.62,-1448.5 1517.88,-1448.5"/>
<text xml:space="preserve" text-anchor="start" x="1522.88" y="-1456.7" font-family="Times New Roman,serif" font-size="14.00">Assignment Info: Assignee 1: Phone Myat SoeAssignee 2: Kyaw Zaw Tun</text>
<polygon fill="none" stroke="black" points="1517.88,-1422 1517.88,-1448.5 1936.62,-1448.5 1936.62,-1422 1517.88,-1422"/>
<text xml:space="preserve" text-anchor="start" x="1641.75" y="-1430.2" font-family="Times New Roman,serif" font-size="14.00">Expression: Number_1=&quot;+++&quot;</text>
</g>
<!-- Activity_7ucWyAlOW&#45;&gt;Activity_0MrJOx_m9 -->
<g id="edge3" class="edge">
<title>Activity_7ucWyAlOW&#45;&gt;Activity_0MrJOx_m9</title>
<path fill="none" stroke="black" d="M1827.56,-1563.66C1827.56,-1563.66 1827.56,-1517 1827.56,-1517"/>
<polygon fill="black" stroke="black" points="1831.06,-1517 1827.56,-1507 1824.06,-1517 1831.06,-1517"/>
</g>
<!-- Activity_zo43MXYTl -->
<g id="node13" class="node">
<title>Activity_zo43MXYTl</title>
<polygon fill="none" stroke="black" points="857.38,-561 857.38,-587.5 1543.12,-587.5 1543.12,-561 857.38,-561"/>
<text xml:space="preserve" text-anchor="start" x="1160.12" y="-570.2" font-family="Times New Roman,serif" font-weight="bold" font-size="14.00">Known Error</text>
<polygon fill="none" stroke="black" points="857.38,-534.5 857.38,-561 1543.12,-561 1543.12,-534.5 857.38,-534.5"/>
<text xml:space="preserve" text-anchor="start" x="862.38" y="-542.7" font-family="Times New Roman,serif" font-size="14.00">Assignment Info: Assignee 1: Kyaw Zaw TunAssignee 2: Phone Myat SoeAssignee 3: userandgrouplist(Assign_Group_L1)</text>
<polygon fill="none" stroke="black" points="857.38,-508 857.38,-534.5 1543.12,-534.5 1543.12,-508 857.38,-508"/>
<text xml:space="preserve" text-anchor="start" x="1109.88" y="-516.2" font-family="Times New Roman,serif" font-size="14.00">Expression: Known_Error=true()</text>
</g>
<!-- Activity_7ucWyAlOW&#45;&gt;Activity_zo43MXYTl -->
<g id="edge2" class="edge">
<title>Activity_7ucWyAlOW&#45;&gt;Activity_zo43MXYTl</title>
<path fill="none" stroke="black" d="M2018.56,-1563.54C2018.56,-1391.4 2018.56,-548 2018.56,-548 2018.56,-548 1562.36,-548 1562.36,-548"/>
<polygon fill="black" stroke="black" points="1562.36,-544.5 1552.36,-548 1562.36,-551.5 1562.36,-544.5"/>
</g>
<!-- Activity_wrH2DgTbj -->
<g id="node4" class="node">
<title>Activity_wrH2DgTbj</title>
<polygon fill="none" stroke="black" points="1317.38,-1329.5 1317.38,-1356 2003.12,-1356 2003.12,-1329.5 1317.38,-1329.5"/>
<text xml:space="preserve" text-anchor="start" x="1644.12" y="-1338.7" font-family="Times New Roman,serif" font-weight="bold" font-size="14.00">Open</text>
<polygon fill="none" stroke="black" points="1317.38,-1303 1317.38,-1329.5 2003.12,-1329.5 2003.12,-1303 1317.38,-1303"/>
<text xml:space="preserve" text-anchor="start" x="1322.38" y="-1311.2" font-family="Times New Roman,serif" font-size="14.00">Assignment Info: Assignee 1: Kyaw Zaw TunAssignee 2: userandgrouplist(Assign_Group_L1)Assignee 3: Phone Myat Soe</text>
<polygon fill="none" stroke="black" points="1317.38,-1276.5 1317.38,-1303 2003.12,-1303 2003.12,-1276.5 1317.38,-1276.5"/>
<text xml:space="preserve" text-anchor="start" x="1606.25" y="-1284.7" font-family="Times New Roman,serif" font-size="14.00">Expression: Always</text>
</g>
<!-- Activity_0MrJOx_m9&#45;&gt;Activity_wrH2DgTbj -->
<g id="edge4" class="edge">
<title>Activity_0MrJOx_m9&#45;&gt;Activity_wrH2DgTbj</title>
<path fill="none" stroke="black" d="M1727.25,-1418.1C1727.25,-1418.1 1727.25,-1371.39 1727.25,-1371.39"/>
<polygon fill="black" stroke="black" points="1730.75,-1371.39 1727.25,-1361.39 1723.75,-1371.39 1730.75,-1371.39"/>
</g>
<!-- Activity_XOcZng91C -->
<g id="node5" class="node">
<title>Activity_XOcZng91C</title>
<polygon fill="none" stroke="black" points="410.88,-1184 410.88,-1210.5 829.62,-1210.5 829.62,-1184 410.88,-1184"/>
<text xml:space="preserve" text-anchor="start" x="558" y="-1193.2" font-family="Times New Roman,serif" font-weight="bold" font-size="14.00">Dummy Step Reopen</text>
<polygon fill="none" stroke="black" points="410.88,-1157.5 410.88,-1184 829.62,-1184 829.62,-1157.5 410.88,-1157.5"/>
<text xml:space="preserve" text-anchor="start" x="415.88" y="-1165.7" font-family="Times New Roman,serif" font-size="14.00">Assignment Info: Assignee 1: Kyaw Zaw TunAssignee 2: Phone Myat Soe</text>
<polygon fill="none" stroke="black" points="410.88,-1131 410.88,-1157.5 829.62,-1157.5 829.62,-1131 410.88,-1131"/>
<text xml:space="preserve" text-anchor="start" x="546.75" y="-1139.2" font-family="Times New Roman,serif" font-size="14.00">Expression: Reopen=true()</text>
</g>
<!-- Activity_wrH2DgTbj&#45;&gt;Activity_XOcZng91C -->
<g id="edge5" class="edge">
<title>Activity_wrH2DgTbj&#45;&gt;Activity_XOcZng91C</title>
<path fill="none" stroke="black" d="M1332.81,-1272.67C1332.81,-1229.89 1332.81,-1171 1332.81,-1171 1332.81,-1171 848.94,-1171 848.94,-1171"/>
<polygon fill="black" stroke="black" points="848.94,-1167.5 838.94,-1171 848.94,-1174.5 848.94,-1167.5"/>
</g>
<!-- Activity_DhTqLzOz2 -->
<g id="node6" class="node">
<title>Activity_DhTqLzOz2</title>
<polygon fill="lightyellow" stroke="black" points="828.25,-1069 723.78,-1051 828.25,-1033 932.72,-1051 828.25,-1069"/>
<text xml:space="preserve" text-anchor="middle" x="828.25" y="-1045.95" font-family="Times New Roman,serif" font-size="14.00">ParallelActivity2</text>
</g>
<!-- Activity_XOcZng91C&#45;&gt;Activity_DhTqLzOz2 -->
<g id="edge6" class="edge">
<title>Activity_XOcZng91C&#45;&gt;Activity_DhTqLzOz2</title>
<path fill="none" stroke="black" d="M780.7,-1127.18C780.7,-1127.18 780.7,-1072.79 780.7,-1072.79"/>
<polygon fill="black" stroke="black" points="784.2,-1072.79 780.7,-1062.79 777.2,-1072.79 784.2,-1072.79"/>
</g>
<!-- ProcessDef_Bh93SDan37 -->
<g id="node7" class="node">
<title>ProcessDef_Bh93SDan37</title>
<polygon fill="none" stroke="black" points="769.25,-944.5 769.25,-971 887.25,-971 887.25,-944.5 769.25,-944.5"/>
<text xml:space="preserve" text-anchor="start" x="802.38" y="-953.7" font-family="Times New Roman,serif" font-weight="bold" font-size="14.00">Open L1</text>
<polygon fill="none" stroke="black" points="769.25,-918 769.25,-944.5 887.25,-944.5 887.25,-918 769.25,-918"/>
<text xml:space="preserve" text-anchor="start" x="774.25" y="-926.2" font-family="Times New Roman,serif" font-size="14.00">Expression: Always</text>
</g>
<!-- Activity_DhTqLzOz2&#45;&gt;ProcessDef_Bh93SDan37 -->
<g id="edge7" class="edge">
<title>Activity_DhTqLzOz2&#45;&gt;ProcessDef_Bh93SDan37</title>
<path fill="none" stroke="black" d="M828.25,-1032.93C828.25,-1032.93 828.25,-986.29 828.25,-986.29"/>
<polygon fill="black" stroke="black" points="831.75,-986.29 828.25,-976.29 824.75,-986.29 831.75,-986.29"/>
</g>
<!-- ProcessDef_LvH1LdKia0 -->
<g id="node10" class="node">
<title>ProcessDef_LvH1LdKia0</title>
<polygon fill="none" stroke="black" points="1230.25,-944.5 1230.25,-971 1348.25,-971 1348.25,-944.5 1230.25,-944.5"/>
<text xml:space="preserve" text-anchor="start" x="1263.38" y="-953.7" font-family="Times New Roman,serif" font-weight="bold" font-size="14.00">Open L2</text>
<polygon fill="none" stroke="black" points="1230.25,-918 1230.25,-944.5 1348.25,-944.5 1348.25,-918 1230.25,-918"/>
<text xml:space="preserve" text-anchor="start" x="1235.25" y="-926.2" font-family="Times New Roman,serif" font-size="14.00">Expression: Always</text>
</g>
<!-- Activity_DhTqLzOz2&#45;&gt;ProcessDef_LvH1LdKia0 -->
<g id="edge11" class="edge">
<title>Activity_DhTqLzOz2&#45;&gt;ProcessDef_LvH1LdKia0</title>
<path fill="none" stroke="black" d="M913.98,-1047.47C913.98,-1029.08 913.98,-945 913.98,-945 913.98,-945 1211.08,-945 1211.08,-945"/>
<polygon fill="black" stroke="black" points="1211.08,-948.5 1221.08,-945 1211.08,-941.5 1211.08,-948.5"/>
</g>
<!-- Activity_OMgyLZJkM -->
<g id="node8" class="node">
<title>Activity_OMgyLZJkM</title>
<polygon fill="none" stroke="black" points="485.38,-825.5 485.38,-852 1171.12,-852 1171.12,-825.5 485.38,-825.5"/>
<text xml:space="preserve" text-anchor="start" x="802.38" y="-834.7" font-family="Times New Roman,serif" font-weight="bold" font-size="14.00">Open L1</text>
<polygon fill="none" stroke="black" points="485.38,-799 485.38,-825.5 1171.12,-825.5 1171.12,-799 485.38,-799"/>
<text xml:space="preserve" text-anchor="start" x="490.38" y="-807.2" font-family="Times New Roman,serif" font-size="14.00">Assignment Info: Assignee 1: Kyaw Zaw TunAssignee 2: Phone Myat SoeAssignee 3: userandgrouplist(Assign_Group_L1)</text>
<polygon fill="none" stroke="black" points="485.38,-772.5 485.38,-799 1171.12,-799 1171.12,-772.5 485.38,-772.5"/>
<text xml:space="preserve" text-anchor="start" x="774.25" y="-780.7" font-family="Times New Roman,serif" font-size="14.00">Expression: Always</text>
</g>
<!-- ProcessDef_Bh93SDan37&#45;&gt;Activity_OMgyLZJkM -->
<g id="edge8" class="edge">
<title>ProcessDef_Bh93SDan37&#45;&gt;Activity_OMgyLZJkM</title>
<path fill="none" stroke="black" d="M828.25,-914.16C828.25,-914.16 828.25,-867.5 828.25,-867.5"/>
<polygon fill="black" stroke="black" points="831.75,-867.5 828.25,-857.5 824.75,-867.5 831.75,-867.5"/>
</g>
<!-- Activity_QUC45cCJP -->
<g id="node9" class="node">
<title>Activity_QUC45cCJP</title>
<polygon fill="none" stroke="black" points="678.5,-680 678.5,-706.5 978,-706.5 978,-680 678.5,-680"/>
<text xml:space="preserve" text-anchor="start" x="749.12" y="-689.2" font-family="Times New Roman,serif" font-weight="bold" font-size="14.00">Goto&#45;Dummy Step Reopen</text>
<polygon fill="none" stroke="black" points="678.5,-653.5 678.5,-680 978,-680 978,-653.5 678.5,-653.5"/>
<text xml:space="preserve" text-anchor="start" x="683.5" y="-661.7" font-family="Times New Roman,serif" font-size="14.00">Expression: Choosing_Assignment_group_L2=true()</text>
</g>
<!-- Activity_OMgyLZJkM&#45;&gt;Activity_QUC45cCJP -->
<g id="edge9" class="edge">
<title>Activity_OMgyLZJkM&#45;&gt;Activity_QUC45cCJP</title>
<path fill="none" stroke="black" d="M828.25,-768.58C828.25,-768.58 828.25,-721.76 828.25,-721.76"/>
<polygon fill="black" stroke="black" points="831.75,-721.76 828.25,-711.76 824.75,-721.77 831.75,-721.76"/>
</g>
<!-- Activity_QUC45cCJP&#45;&gt;Activity_XOcZng91C -->
<g id="edge10" class="edge">
<title>Activity_QUC45cCJP&#45;&gt;Activity_XOcZng91C</title>
<path fill="none" stroke="black" d="M670.55,-680C567.73,-680 452.54,-680 452.54,-680 452.54,-680 452.54,-1115.69 452.54,-1115.69"/>
<polygon fill="black" stroke="black" points="449.04,-1115.69 452.54,-1125.69 456.04,-1115.69 449.04,-1115.69"/>
</g>
<!-- Activity_QUC45cCJP&#45;&gt;Activity_zo43MXYTl -->
<g id="edge15" class="edge">
<title>Activity_QUC45cCJP&#45;&gt;Activity_zo43MXYTl</title>
<path fill="none" stroke="black" d="M917.69,-649.66C917.69,-649.66 917.69,-603 917.69,-603"/>
<polygon fill="black" stroke="black" points="921.19,-603 917.69,-593 914.19,-603 921.19,-603"/>
</g>
<!-- Activity_1qgsmo4Fw -->
<g id="node11" class="node">
<title>Activity_1qgsmo4Fw</title>
<polygon fill="none" stroke="black" points="1230.38,-825.5 1230.38,-852 1916.12,-852 1916.12,-825.5 1230.38,-825.5"/>
<text xml:space="preserve" text-anchor="start" x="1547.38" y="-834.7" font-family="Times New Roman,serif" font-weight="bold" font-size="14.00">Open L2</text>
<polygon fill="none" stroke="black" points="1230.38,-799 1230.38,-825.5 1916.12,-825.5 1916.12,-799 1230.38,-799"/>
<text xml:space="preserve" text-anchor="start" x="1235.38" y="-807.2" font-family="Times New Roman,serif" font-size="14.00">Assignment Info: Assignee 1: Kyaw Zaw TunAssignee 2: Phone Myat SoeAssignee 3: userandgrouplist(Assign_Group_L2)</text>
<polygon fill="none" stroke="black" points="1230.38,-772.5 1230.38,-799 1916.12,-799 1916.12,-772.5 1230.38,-772.5"/>
<text xml:space="preserve" text-anchor="start" x="1519.25" y="-780.7" font-family="Times New Roman,serif" font-size="14.00">Expression: Always</text>
</g>
<!-- ProcessDef_LvH1LdKia0&#45;&gt;Activity_1qgsmo4Fw -->
<g id="edge12" class="edge">
<title>ProcessDef_LvH1LdKia0&#45;&gt;Activity_1qgsmo4Fw</title>
<path fill="none" stroke="black" d="M1289.31,-914.16C1289.31,-914.16 1289.31,-867.5 1289.31,-867.5"/>
<polygon fill="black" stroke="black" points="1292.81,-867.5 1289.31,-857.5 1285.81,-867.5 1292.81,-867.5"/>
</g>
<!-- Activity_PawqZFiO1 -->
<g id="node12" class="node">
<title>Activity_PawqZFiO1</title>
<polygon fill="none" stroke="black" points="1455.38,-680 1455.38,-706.5 1691.12,-706.5 1691.12,-680 1455.38,-680"/>
<text xml:space="preserve" text-anchor="start" x="1540.25" y="-689.2" font-family="Times New Roman,serif" font-weight="bold" font-size="14.00">Goto&#45;Open</text>
<polygon fill="none" stroke="black" points="1455.38,-653.5 1455.38,-680 1691.12,-680 1691.12,-653.5 1455.38,-653.5"/>
<text xml:space="preserve" text-anchor="start" x="1460.38" y="-661.7" font-family="Times New Roman,serif" font-size="14.00">Expression: Root_Cause_Analysis=true()</text>
</g>
<!-- Activity_1qgsmo4Fw&#45;&gt;Activity_PawqZFiO1 -->
<g id="edge13" class="edge">
<title>Activity_1qgsmo4Fw&#45;&gt;Activity_PawqZFiO1</title>
<path fill="none" stroke="black" d="M1573.25,-768.58C1573.25,-768.58 1573.25,-721.76 1573.25,-721.76"/>
<polygon fill="black" stroke="black" points="1576.75,-721.76 1573.25,-711.76 1569.75,-721.77 1576.75,-721.76"/>
</g>
<!-- Activity_PawqZFiO1&#45;&gt;Activity_wrH2DgTbj -->
<g id="edge14" class="edge">
<title>Activity_PawqZFiO1&#45;&gt;Activity_wrH2DgTbj</title>
<path fill="none" stroke="black" d="M1699.12,-680C1814.53,-680 1967.62,-680 1967.62,-680 1967.62,-680 1967.62,-1261 1967.62,-1261"/>
<polygon fill="black" stroke="black" points="1964.13,-1261 1967.63,-1271 1971.13,-1261 1964.13,-1261"/>
</g>
<!-- Activity_PawqZFiO1&#45;&gt;Activity_zo43MXYTl -->
<g id="edge16" class="edge">
<title>Activity_PawqZFiO1&#45;&gt;Activity_zo43MXYTl</title>
<path fill="none" stroke="black" d="M1499.25,-649.66C1499.25,-649.66 1499.25,-603 1499.25,-603"/>
<polygon fill="black" stroke="black" points="1502.75,-603 1499.25,-593 1495.75,-603 1502.75,-603"/>
</g>
<!-- Activity_oukI4qye&#45; -->
<g id="node14" class="node">
<title>Activity_oukI4qye&#45;</title>
<polygon fill="none" stroke="black" points="492.12,-415.5 492.12,-442 660.38,-442 660.38,-415.5 492.12,-415.5"/>
<text xml:space="preserve" text-anchor="start" x="497.12" y="-424.7" font-family="Times New Roman,serif" font-weight="bold" font-size="14.00">Goto&#45;Dummy Step Reopen</text>
<polygon fill="none" stroke="black" points="492.12,-389 492.12,-415.5 660.38,-415.5 660.38,-389 492.12,-389"/>
<text xml:space="preserve" text-anchor="start" x="502.75" y="-397.2" font-family="Times New Roman,serif" font-size="14.00">Expression: Reopen=true()</text>
</g>
<!-- Activity_zo43MXYTl&#45;&gt;Activity_oukI4qye&#45; -->
<g id="edge17" class="edge">
<title>Activity_zo43MXYTl&#45;&gt;Activity_oukI4qye&#45;</title>
<path fill="none" stroke="black" d="M849.49,-548C707.43,-548 576.25,-548 576.25,-548 576.25,-548 576.25,-457.41 576.25,-457.41"/>
<polygon fill="black" stroke="black" points="579.75,-457.41 576.25,-447.41 572.75,-457.41 579.75,-457.41"/>
</g>
<!-- Activity_oukI4qye&#45;&#45;&gt;Activity_XOcZng91C -->
<g id="edge18" class="edge">
<title>Activity_oukI4qye&#45;&#45;&gt;Activity_XOcZng91C</title>
<path fill="none" stroke="black" d="M484.29,-416C453.9,-416 427.71,-416 427.71,-416 427.71,-416 427.71,-1115.67 427.71,-1115.67"/>
<polygon fill="black" stroke="black" points="424.21,-1115.67 427.71,-1125.67 431.21,-1115.67 424.21,-1115.67"/>
</g>
<!-- Activity__u5mqDTH8 -->
<g id="node15" class="node">
<title>Activity__u5mqDTH8</title>
<polygon fill="none" stroke="black" points="8,-296.5 8,-323 1144.5,-323 1144.5,-296.5 8,-296.5"/>
<text xml:space="preserve" text-anchor="start" x="528.62" y="-305.7" font-family="Times New Roman,serif" font-weight="bold" font-size="14.00">Pending Change</text>
<polygon fill="none" stroke="black" points="8,-270 8,-296.5 1144.5,-296.5 1144.5,-270 8,-270"/>
<text xml:space="preserve" text-anchor="start" x="13" y="-278.2" font-family="Times New Roman,serif" font-size="14.00">Assignment Info: Assignee 1: Kyaw Zaw TunAssignee 2: Phone Myat SoeAssignee 3: if(Choosing_Assignment_group_L2=false(),userandgrouplist(Assign_Group_L1),userandgrouplist(Assign_Group_L2))</text>
<polygon fill="none" stroke="black" points="8,-243.5 8,-270 1144.5,-270 1144.5,-243.5 8,-243.5"/>
<text xml:space="preserve" text-anchor="start" x="473.5" y="-251.7" font-family="Times New Roman,serif" font-size="14.00">Expression: Pending_Change = true()</text>
</g>
<!-- Activity_oukI4qye&#45;&#45;&gt;Activity__u5mqDTH8 -->
<g id="edge19" class="edge">
<title>Activity_oukI4qye&#45;&#45;&gt;Activity__u5mqDTH8</title>
<path fill="none" stroke="black" d="M576.25,-385.16C576.25,-385.16 576.25,-338.5 576.25,-338.5"/>
<polygon fill="black" stroke="black" points="579.75,-338.5 576.25,-328.5 572.75,-338.5 579.75,-338.5"/>
</g>
<!-- Activity_Rr1b5H&#45;rA -->
<g id="node16" class="node">
<title>Activity_Rr1b5H&#45;rA</title>
<polygon fill="none" stroke="black" points="155,-151 155,-177.5 997.5,-177.5 997.5,-151 155,-151"/>
<text xml:space="preserve" text-anchor="start" x="536.5" y="-160.2" font-family="Times New Roman,serif" font-weight="bold" font-size="14.00">Close/Resolve</text>
<polygon fill="none" stroke="black" points="155,-124.5 155,-151 997.5,-151 997.5,-124.5 155,-124.5"/>
<text xml:space="preserve" text-anchor="start" x="160" y="-132.7" font-family="Times New Roman,serif" font-size="14.00">Assignment Info: Assignee 1: Kyaw Zaw TunAssignee 2: Khine Zar ThweAssignee 3: Phone Myat SoeAssignee 4: userandgrouplist(Assign_Group_L1)</text>
<polygon fill="none" stroke="black" points="155,-98 155,-124.5 997.5,-124.5 997.5,-98 155,-98"/>
<text xml:space="preserve" text-anchor="start" x="479.5" y="-106.2" font-family="Times New Roman,serif" font-size="14.00">Expression: ClosedResolved=true()</text>
</g>
<!-- Activity__u5mqDTH8&#45;&gt;Activity_Rr1b5H&#45;rA -->
<g id="edge20" class="edge">
<title>Activity__u5mqDTH8&#45;&gt;Activity_Rr1b5H&#45;rA</title>
<path fill="none" stroke="black" d="M576.25,-239.6C576.25,-239.6 576.25,-192.89 576.25,-192.89"/>
<polygon fill="black" stroke="black" points="579.75,-192.89 576.25,-182.89 572.75,-192.89 579.75,-192.89"/>
</g>
<!-- Activity_ebVGyiOLzl -->
<g id="node17" class="node">
<title>Activity_ebVGyiOLzl</title>
<ellipse fill="lightcoral" stroke="black" cx="576.25" cy="-18" rx="51.86" ry="18"/>
<text xml:space="preserve" text-anchor="middle" x="576.25" y="-12.95" font-family="Times New Roman,serif" font-size="14.00">Completed</text>
</g>
<!-- Activity_Rr1b5H&#45;rA&#45;&gt;Activity_ebVGyiOLzl -->
<g id="edge21" class="edge">
<title>Activity_Rr1b5H&#45;rA&#45;&gt;Activity_ebVGyiOLzl</title>
<path fill="none" stroke="black" d="M576.25,-94.18C576.25,-94.18 576.25,-47.87 576.25,-47.87"/>
<polygon fill="black" stroke="black" points="579.75,-47.87 576.25,-37.87 572.75,-47.87 579.75,-47.87"/>
</g>
</g>
</svg>
